<svg width="201" height="32" viewBox="0 0 201 32" fill="none" xmlns="http://www.w3.org/2000/svg">
<path d="M9.191 2.99H9.828L9.568 6.279H9.048C8.866 5.48167 8.51067 4.85333 7.982 4.394C7.462 3.93467 6.82933 3.705 6.084 3.705C5.57267 3.705 5.11767 3.809 4.719 4.017C4.32033 4.21633 3.98233 4.50667 3.705 4.888C3.43633 5.26067 3.22833 5.72 3.081 6.266C2.94233 6.80333 2.873 7.41 2.873 8.086C2.873 9.42933 3.146 10.465 3.692 11.193C4.24667 11.9123 5.06133 12.272 6.136 12.272C7.00267 12.272 7.71767 12.038 8.281 11.57C8.853 11.102 9.26033 10.4043 9.503 9.477H10.075V13H9.464L9.282 11.973C8.32867 12.7443 7.17167 13.13 5.811 13.13C5.02233 13.13 4.30733 13.013 3.666 12.779C3.02467 12.545 2.47867 12.2157 2.028 11.791C1.57733 11.3577 1.22633 10.8333 0.975 10.218C0.732333 9.60267 0.611 8.918 0.611 8.164C0.611 7.37533 0.741 6.656 1.001 6.006C1.261 5.356 1.625 4.797 2.093 4.329C2.56967 3.861 3.133 3.50133 3.783 3.25C4.44167 2.99 5.16967 2.86 5.967 2.86C6.49567 2.86 6.98967 2.93367 7.449 3.081C7.90833 3.22833 8.40667 3.46667 8.944 3.796L9.191 2.99ZM13.8741 10.868C13.8741 11.2233 13.8828 11.505 13.9001 11.713C13.9261 11.9123 13.9738 12.0683 14.0431 12.181C14.1211 12.2937 14.2338 12.3673 14.3811 12.402C14.5371 12.4367 14.7451 12.4627 15.0051 12.48V13H10.9101V12.48C11.1701 12.4627 11.3781 12.4367 11.5341 12.402C11.6901 12.3673 11.8071 12.298 11.8851 12.194C11.9631 12.09 12.0108 11.9427 12.0281 11.752C12.0541 11.5527 12.0671 11.2883 12.0671 10.959V5.616C12.0671 5.096 12.0585 4.68867 12.0411 4.394C12.0325 4.09067 12.0108 3.861 11.9761 3.705C11.9501 3.59233 11.9198 3.50567 11.8851 3.445C11.8505 3.37567 11.7941 3.32367 11.7161 3.289C11.6468 3.24567 11.5471 3.21967 11.4171 3.211C11.2958 3.19367 11.1398 3.185 10.9491 3.185V2.704L13.8481 2.21V7.007H13.9001C14.1688 6.65167 14.4678 6.39167 14.7971 6.227C15.1351 6.06233 15.5381 5.98 16.0061 5.98C16.8555 5.98 17.5141 6.24 17.9821 6.76C18.2075 7.02 18.3851 7.33633 18.5151 7.709C18.6451 8.073 18.7101 8.45433 18.7101 8.853V10.868C18.7101 11.232 18.7188 11.518 18.7361 11.726C18.7535 11.9253 18.7968 12.0813 18.8661 12.194C18.9441 12.298 19.0568 12.3673 19.2041 12.402C19.3515 12.4367 19.5551 12.4627 19.8151 12.48V13H15.7461V12.48C16.0061 12.4713 16.2098 12.4497 16.3571 12.415C16.5131 12.3717 16.6301 12.298 16.7081 12.194C16.7948 12.09 16.8468 11.9427 16.8641 11.752C16.8901 11.5527 16.9031 11.2883 16.9031 10.959V9.36C16.9031 8.44133 16.8035 7.79133 16.6041 7.41C16.4048 7.02867 16.0625 6.838 15.5771 6.838C15.0571 6.838 14.6455 7.02867 14.3421 7.41C14.1948 7.60933 14.0778 7.85633 13.9911 8.151C13.9131 8.44567 13.8741 8.775 13.8741 9.139V10.868ZM23.3364 10.985C23.3364 11.323 23.3494 11.5917 23.3754 11.791C23.4101 11.9817 23.4751 12.129 23.5704 12.233C23.6658 12.337 23.8044 12.4063 23.9864 12.441C24.1684 12.467 24.4111 12.48 24.7144 12.48V13H20.3724V12.48C20.6324 12.4627 20.8404 12.4367 20.9964 12.402C21.1524 12.3673 21.2694 12.298 21.3474 12.194C21.4254 12.09 21.4731 11.9427 21.4904 11.752C21.5164 11.5527 21.5294 11.2883 21.5294 10.959V9.373C21.5294 8.83567 21.5164 8.40667 21.4904 8.086C21.4644 7.76533 21.4081 7.51833 21.3214 7.345C21.2348 7.17167 21.1091 7.059 20.9444 7.007C20.7884 6.94633 20.5804 6.916 20.3204 6.916V6.461L22.9204 5.98L23.1284 7.475H23.1804C23.4144 7.01567 23.7221 6.65167 24.1034 6.383C24.4848 6.11433 24.8878 5.98 25.3124 5.98C25.6418 5.98 25.9104 6.06233 26.1184 6.227C26.3264 6.39167 26.4304 6.59967 26.4304 6.851C26.4304 7.12833 26.3481 7.36233 26.1834 7.553C26.0274 7.74367 25.8108 7.839 25.5334 7.839C25.4034 7.839 25.2864 7.813 25.1824 7.761C25.0784 7.709 24.9831 7.65267 24.8964 7.592C24.8184 7.52267 24.7361 7.462 24.6494 7.41C24.5714 7.34933 24.4891 7.319 24.4024 7.319C24.2378 7.319 24.0818 7.42733 23.9344 7.644C23.7871 7.86067 23.6658 8.151 23.5704 8.515C23.5011 8.775 23.4448 9.06967 23.4014 9.399C23.3581 9.71967 23.3364 10.0403 23.3364 10.361V10.985ZM30.6576 5.98C31.1776 5.98 31.6672 6.071 32.1266 6.253C32.5946 6.42633 33.0019 6.669 33.3486 6.981C33.7039 7.293 33.9812 7.66567 34.1806 8.099C34.3886 8.52367 34.4926 8.99167 34.4926 9.503C34.4926 10.0317 34.3886 10.517 34.1806 10.959C33.9812 11.401 33.7039 11.7823 33.3486 12.103C33.0019 12.4237 32.5946 12.675 32.1266 12.857C31.6672 13.039 31.1776 13.13 30.6576 13.13C30.1462 13.13 29.6609 13.0433 29.2016 12.87C28.7422 12.688 28.3392 12.4367 27.9926 12.116C27.6459 11.7953 27.3729 11.414 27.1736 10.972C26.9742 10.5213 26.8746 10.0317 26.8746 9.503C26.8746 8.99167 26.9742 8.51933 27.1736 8.086C27.3729 7.65267 27.6459 7.28 27.9926 6.968C28.3392 6.656 28.7422 6.41333 29.2016 6.24C29.6609 6.06667 30.1462 5.98 30.6576 5.98ZM30.6576 6.734C30.3976 6.734 30.1592 6.80333 29.9426 6.942C29.7259 7.072 29.5396 7.25833 29.3836 7.501C29.2362 7.74367 29.1192 8.03833 29.0326 8.385C28.9546 8.723 28.9156 9.1 28.9156 9.516C28.9156 9.94933 28.9546 10.3393 29.0326 10.686C29.1192 11.0327 29.2362 11.3273 29.3836 11.57C29.5396 11.8127 29.7216 12.0033 29.9296 12.142C30.1462 12.272 30.3889 12.337 30.6576 12.337C30.9262 12.337 31.1689 12.272 31.3856 12.142C31.6109 12.0033 31.8016 11.8127 31.9576 11.57C32.1136 11.3187 32.2349 11.0197 32.3216 10.673C32.4082 10.3263 32.4516 9.94067 32.4516 9.516C32.4516 9.1 32.4082 8.723 32.3216 8.385C32.2349 8.047 32.1136 7.75667 31.9576 7.514C31.8016 7.26267 31.6109 7.072 31.3856 6.942C31.1689 6.80333 30.9262 6.734 30.6576 6.734ZM38.3166 10.881C38.3166 11.2363 38.3253 11.518 38.3426 11.726C38.3686 11.9253 38.4163 12.0813 38.4856 12.194C38.5636 12.298 38.6763 12.3673 38.8236 12.402C38.9796 12.4367 39.1876 12.4627 39.4476 12.48V13H35.3526V12.48C35.6039 12.4627 35.8033 12.4367 35.9506 12.402C36.1066 12.3673 36.2236 12.298 36.3016 12.194C36.3883 12.09 36.4446 11.9427 36.4706 11.752C36.4966 11.5613 36.5096 11.3013 36.5096 10.972V9.347C36.5096 8.83567 36.5009 8.424 36.4836 8.112C36.4663 7.79133 36.4446 7.57467 36.4186 7.462C36.3926 7.34933 36.3579 7.25833 36.3146 7.189C36.2713 7.111 36.2063 7.05467 36.1196 7.02C36.0329 6.97667 35.9246 6.95067 35.7946 6.942C35.6646 6.92467 35.4999 6.916 35.3006 6.916V6.474L37.8096 5.98L37.9786 7.124H38.0306C38.3166 6.76 38.6546 6.47833 39.0446 6.279C39.4346 6.07967 39.8636 5.98 40.3316 5.98C40.8863 5.98 41.3326 6.058 41.6706 6.214C42.0173 6.36133 42.3249 6.61267 42.5936 6.968C42.7409 7.16733 42.8709 7.42733 42.9836 7.748C43.0963 8.06 43.1526 8.49333 43.1526 9.048V10.881C43.1526 11.2363 43.1613 11.518 43.1786 11.726C43.2046 11.9253 43.2523 12.0813 43.3216 12.194C43.3996 12.298 43.5123 12.3673 43.6596 12.402C43.8069 12.4367 44.0063 12.4627 44.2576 12.48V13H40.1886V12.48C40.4486 12.4713 40.6523 12.4497 40.7996 12.415C40.9556 12.3717 41.0726 12.298 41.1506 12.194C41.2286 12.09 41.2806 11.9427 41.3066 11.752C41.3326 11.5527 41.3456 11.2927 41.3456 10.972V9.204C41.3456 8.762 41.3196 8.38933 41.2676 8.086C41.2156 7.78267 41.1289 7.54 41.0076 7.358C40.8949 7.16733 40.7433 7.033 40.5526 6.955C40.3619 6.86833 40.1236 6.825 39.8376 6.825C39.5603 6.825 39.3219 6.903 39.1226 7.059C38.9233 7.215 38.7499 7.43167 38.6026 7.709C38.5246 7.865 38.4553 8.06867 38.3946 8.32C38.3426 8.56267 38.3166 8.81833 38.3166 9.087V10.881ZM48.6849 5.98C49.2049 5.98 49.6946 6.071 50.1539 6.253C50.6219 6.42633 51.0292 6.669 51.3759 6.981C51.7312 7.293 52.0086 7.66567 52.2079 8.099C52.4159 8.52367 52.5199 8.99167 52.5199 9.503C52.5199 10.0317 52.4159 10.517 52.2079 10.959C52.0086 11.401 51.7312 11.7823 51.3759 12.103C51.0292 12.4237 50.6219 12.675 50.1539 12.857C49.6946 13.039 49.2049 13.13 48.6849 13.13C48.1736 13.13 47.6882 13.0433 47.2289 12.87C46.7696 12.688 46.3666 12.4367 46.0199 12.116C45.6732 11.7953 45.4002 11.414 45.2009 10.972C45.0016 10.5213 44.9019 10.0317 44.9019 9.503C44.9019 8.99167 45.0016 8.51933 45.2009 8.086C45.4002 7.65267 45.6732 7.28 46.0199 6.968C46.3666 6.656 46.7696 6.41333 47.2289 6.24C47.6882 6.06667 48.1736 5.98 48.6849 5.98ZM48.6849 6.734C48.4249 6.734 48.1866 6.80333 47.9699 6.942C47.7532 7.072 47.5669 7.25833 47.4109 7.501C47.2636 7.74367 47.1466 8.03833 47.0599 8.385C46.9819 8.723 46.9429 9.1 46.9429 9.516C46.9429 9.94933 46.9819 10.3393 47.0599 10.686C47.1466 11.0327 47.2636 11.3273 47.4109 11.57C47.5669 11.8127 47.7489 12.0033 47.9569 12.142C48.1736 12.272 48.4162 12.337 48.6849 12.337C48.9536 12.337 49.1962 12.272 49.4129 12.142C49.6382 12.0033 49.8289 11.8127 49.9849 11.57C50.1409 11.3187 50.2622 11.0197 50.3489 10.673C50.4356 10.3263 50.4789 9.94067 50.4789 9.516C50.4789 9.1 50.4356 8.723 50.3489 8.385C50.2622 8.047 50.1409 7.75667 49.9849 7.514C49.8289 7.26267 49.6382 7.072 49.4129 6.942C49.1962 6.80333 48.9536 6.734 48.6849 6.734ZM56.2139 10.868C56.2139 11.2147 56.2269 11.492 56.2529 11.7C56.2789 11.908 56.3309 12.0683 56.4089 12.181C56.4869 12.2937 56.5996 12.3717 56.7469 12.415C56.8943 12.4497 57.0936 12.4713 57.3449 12.48V13H53.2499V12.48C53.4926 12.4713 53.6876 12.4453 53.8349 12.402C53.9909 12.35 54.1079 12.272 54.1859 12.168C54.2726 12.0553 54.3289 11.9037 54.3549 11.713C54.3896 11.5137 54.4069 11.2623 54.4069 10.959V5.59C54.4069 5.08733 54.3983 4.67567 54.3809 4.355C54.3636 4.02567 54.3419 3.80033 54.3159 3.679C54.2726 3.46233 54.1729 3.31933 54.0169 3.25C53.8696 3.18067 53.5966 3.146 53.1979 3.146V2.704L56.2139 2.21V10.868ZM61.888 5.98C62.408 5.98 62.8977 6.071 63.357 6.253C63.825 6.42633 64.2324 6.669 64.579 6.981C64.9344 7.293 65.2117 7.66567 65.411 8.099C65.619 8.52367 65.723 8.99167 65.723 9.503C65.723 10.0317 65.619 10.517 65.411 10.959C65.2117 11.401 64.9344 11.7823 64.579 12.103C64.2324 12.4237 63.825 12.675 63.357 12.857C62.8977 13.039 62.408 13.13 61.888 13.13C61.3767 13.13 60.8914 13.0433 60.432 12.87C59.9727 12.688 59.5697 12.4367 59.223 12.116C58.8764 11.7953 58.6034 11.414 58.404 10.972C58.2047 10.5213 58.105 10.0317 58.105 9.503C58.105 8.99167 58.2047 8.51933 58.404 8.086C58.6034 7.65267 58.8764 7.28 59.223 6.968C59.5697 6.656 59.9727 6.41333 60.432 6.24C60.8914 6.06667 61.3767 5.98 61.888 5.98ZM61.888 6.734C61.628 6.734 61.3897 6.80333 61.173 6.942C60.9564 7.072 60.77 7.25833 60.614 7.501C60.4667 7.74367 60.3497 8.03833 60.263 8.385C60.185 8.723 60.146 9.1 60.146 9.516C60.146 9.94933 60.185 10.3393 60.263 10.686C60.3497 11.0327 60.4667 11.3273 60.614 11.57C60.77 11.8127 60.952 12.0033 61.16 12.142C61.3767 12.272 61.6194 12.337 61.888 12.337C62.1567 12.337 62.3994 12.272 62.616 12.142C62.8414 12.0033 63.032 11.8127 63.188 11.57C63.344 11.3187 63.4654 11.0197 63.552 10.673C63.6387 10.3263 63.682 9.94067 63.682 9.516C63.682 9.1 63.6387 8.723 63.552 8.385C63.4654 8.047 63.344 7.75667 63.188 7.514C63.032 7.26267 62.8414 7.072 62.616 6.942C62.3994 6.80333 62.1567 6.734 61.888 6.734ZM69.1701 11.596C69.4041 11.6133 69.6077 11.6307 69.7811 11.648C69.9631 11.6653 70.1321 11.687 70.2881 11.713C70.4527 11.7303 70.6131 11.752 70.7691 11.778C70.9337 11.7953 71.1071 11.817 71.2891 11.843C71.9651 11.9383 72.4937 12.194 72.8751 12.61C73.2651 13.0173 73.4601 13.5243 73.4601 14.131C73.4601 14.8677 73.1567 15.4267 72.5501 15.808C71.9434 16.1893 71.0507 16.38 69.8721 16.38C68.7887 16.38 67.9524 16.2197 67.3631 15.899C66.7824 15.587 66.4921 15.1407 66.4921 14.56C66.4921 14.1093 66.6091 13.767 66.8431 13.533C67.0771 13.3077 67.3717 13.195 67.7271 13.195C67.9524 13.195 68.1691 13.2383 68.3771 13.325C68.5937 13.4203 68.7757 13.5547 68.9231 13.728C68.6977 13.7713 68.5114 13.871 68.3641 14.027C68.2254 14.1917 68.1561 14.3823 68.1561 14.599C68.1561 14.9457 68.3077 15.21 68.6111 15.392C68.9231 15.5827 69.3781 15.678 69.9761 15.678C71.2761 15.678 71.9261 15.2663 71.9261 14.443C71.9261 14.1483 71.8264 13.8927 71.6271 13.676C71.4364 13.468 71.1591 13.3423 70.7951 13.299L68.5201 12.987C67.5581 12.857 67.0771 12.428 67.0771 11.7C67.0771 11.3447 67.1897 11.0543 67.4151 10.829C67.6491 10.6037 67.9784 10.4477 68.4031 10.361V10.309C68.2037 10.231 68.0217 10.1227 67.8571 9.984C67.7011 9.84533 67.5624 9.685 67.4411 9.503C67.3197 9.321 67.2244 9.126 67.1551 8.918C67.0944 8.70133 67.0641 8.48033 67.0641 8.255C67.0641 7.93433 67.1291 7.63533 67.2591 7.358C67.3977 7.072 67.5841 6.82933 67.8181 6.63C68.0607 6.43067 68.3424 6.27467 68.6631 6.162C68.9924 6.04067 69.3477 5.98 69.7291 5.98C70.1017 5.98 70.4657 6.03633 70.8211 6.149C71.1764 6.26167 71.4797 6.41767 71.7311 6.617C71.9304 6.49567 72.1037 6.396 72.2511 6.318C72.3984 6.23133 72.5327 6.16633 72.6541 6.123C72.7841 6.071 72.9011 6.03633 73.0051 6.019C73.1091 5.993 73.2131 5.98 73.3171 5.98C73.6464 5.98 73.9107 6.05367 74.1101 6.201C74.3181 6.34833 74.4221 6.54333 74.4221 6.786C74.4221 6.968 74.3657 7.11967 74.2531 7.241C74.1404 7.35367 73.9931 7.41 73.8111 7.41C73.6811 7.41 73.5771 7.384 73.4991 7.332C73.4211 7.27133 73.3431 7.20633 73.2651 7.137C73.1957 7.059 73.1221 6.994 73.0441 6.942C72.9661 6.88133 72.8621 6.851 72.7321 6.851C72.5501 6.851 72.3767 6.968 72.2121 7.202C72.2987 7.34933 72.3594 7.50967 72.3941 7.683C72.4287 7.84767 72.4461 8.04267 72.4461 8.268C72.4461 8.59733 72.3941 8.90067 72.2901 9.178C72.1861 9.45533 72.0214 9.70233 71.7961 9.919C71.5794 10.127 71.2977 10.3047 70.9511 10.452C70.6044 10.5993 70.1841 10.699 69.6901 10.751C69.2741 10.7943 68.9837 10.8507 68.8191 10.92C68.6631 10.9893 68.5851 11.0933 68.5851 11.232C68.5851 11.44 68.7801 11.5613 69.1701 11.596ZM69.7941 10.01C70.0714 10.01 70.2881 9.86267 70.4441 9.568C70.6001 9.27333 70.6781 8.86167 70.6781 8.333C70.6781 7.79567 70.6001 7.384 70.4441 7.098C70.2881 6.80333 70.0671 6.656 69.7811 6.656C69.4864 6.656 69.2524 6.80333 69.0791 7.098C68.9057 7.39267 68.8191 7.79567 68.8191 8.307C68.8191 8.827 68.9057 9.243 69.0791 9.555C69.2611 9.85833 69.4994 10.01 69.7941 10.01ZM77.4816 10.868C77.4816 11.2147 77.4946 11.492 77.5206 11.7C77.5466 11.908 77.5986 12.0683 77.6766 12.181C77.7546 12.2937 77.8673 12.3717 78.0146 12.415C78.162 12.4497 78.3613 12.4713 78.6126 12.48V13H74.5176V12.48C74.7603 12.4713 74.9553 12.4453 75.1026 12.402C75.2586 12.35 75.3756 12.272 75.4536 12.168C75.5403 12.0553 75.5966 11.9037 75.6226 11.713C75.6573 11.5137 75.6746 11.2623 75.6746 10.959V9.36C75.6746 8.85733 75.666 8.44567 75.6486 8.125C75.6313 7.79567 75.6096 7.57033 75.5836 7.449C75.5403 7.23233 75.4406 7.08933 75.2846 7.02C75.1373 6.95067 74.8643 6.916 74.4656 6.916V6.474L77.4816 5.98V10.868ZM75.5706 3.224C75.5706 2.938 75.666 2.69967 75.8566 2.509C76.056 2.30967 76.2943 2.21 76.5716 2.21C76.8576 2.21 77.096 2.30967 77.2866 2.509C77.486 2.69967 77.5856 2.938 77.5856 3.224C77.5856 3.50133 77.486 3.73967 77.2866 3.939C77.096 4.12967 76.8576 4.225 76.5716 4.225C76.2943 4.225 76.056 4.12967 75.8566 3.939C75.666 3.73967 75.5706 3.50133 75.5706 3.224ZM85.8579 11.791C85.0692 12.6837 84.0856 13.13 82.9069 13.13C82.3696 13.13 81.8799 13.0477 81.4379 12.883C81.0046 12.7097 80.6319 12.4713 80.3199 12.168C80.0079 11.856 79.7652 11.4877 79.5919 11.063C79.4186 10.6383 79.3319 10.166 79.3319 9.646C79.3319 9.10867 79.4229 8.619 79.6049 8.177C79.7869 7.72633 80.0426 7.34067 80.3719 7.02C80.7099 6.69067 81.1042 6.435 81.5549 6.253C82.0142 6.071 82.5169 5.98 83.0629 5.98C83.9816 5.98 84.6966 6.227 85.2079 6.721C85.7192 7.215 85.9749 7.90833 85.9749 8.801C85.9749 8.93967 85.9532 9.02633 85.9099 9.061C85.8666 9.087 85.7452 9.1 85.5459 9.1H81.3599C81.3252 9.178 81.3079 9.321 81.3079 9.529C81.3079 10.3783 81.4899 11.05 81.8539 11.544C82.2266 12.038 82.7292 12.285 83.3619 12.285C83.7259 12.285 84.0856 12.2027 84.4409 12.038C84.8049 11.8733 85.1559 11.6393 85.4939 11.336L85.8579 11.791ZM83.3359 8.372C83.6826 8.372 83.9036 8.35467 83.9989 8.32C84.1029 8.27667 84.1549 8.18133 84.1549 8.034C84.1549 7.65267 84.0466 7.34067 83.8299 7.098C83.6132 6.85533 83.3402 6.734 83.0109 6.734C82.6382 6.734 82.3046 6.89 82.0099 7.202C81.7239 7.50533 81.5376 7.89533 81.4509 8.372H83.3359ZM96.1485 12.168H96.0965C95.4985 12.8093 94.7228 13.13 93.7695 13.13C93.2755 13.13 92.8205 13.0433 92.4045 12.87C91.9972 12.6967 91.6418 12.454 91.3385 12.142C91.0438 11.83 90.8142 11.4617 90.6495 11.037C90.4848 10.6037 90.4025 10.127 90.4025 9.607C90.4025 9.087 90.4848 8.606 90.6495 8.164C90.8228 7.722 91.0525 7.34067 91.3385 7.02C91.6332 6.69067 91.9798 6.435 92.3785 6.253C92.7858 6.071 93.2235 5.98 93.6915 5.98C94.1248 5.98 94.5062 6.045 94.8355 6.175C95.1735 6.305 95.4682 6.526 95.7195 6.838H95.7715V5.733C95.7715 5.22167 95.7628 4.784 95.7455 4.42C95.7368 4.04733 95.7195 3.80467 95.6935 3.692C95.6502 3.51 95.5158 3.38 95.2905 3.302C95.0738 3.21533 94.7358 3.172 94.2765 3.172V2.73L97.5655 2.21V9.646C97.5655 10.296 97.5698 10.7987 97.5785 11.154C97.5958 11.5007 97.6218 11.765 97.6565 11.947C97.6738 12.0597 97.6998 12.1507 97.7345 12.22C97.7692 12.2893 97.8212 12.3457 97.8905 12.389C97.9598 12.4237 98.0508 12.4497 98.1635 12.467C98.2848 12.4757 98.4365 12.48 98.6185 12.48V12.987L96.1485 13.13V12.168ZM95.7455 9.269C95.7455 8.93967 95.7108 8.63633 95.6415 8.359C95.5722 8.073 95.4682 7.82167 95.3295 7.605C95.1735 7.35367 94.9742 7.163 94.7315 7.033C94.4888 6.903 94.2288 6.838 93.9515 6.838C93.4402 6.838 93.0502 7.072 92.7815 7.54C92.5128 8.008 92.3785 8.68833 92.3785 9.581C92.3785 10.4823 92.5128 11.1757 92.7815 11.661C93.0502 12.1463 93.4358 12.389 93.9385 12.389C94.2245 12.389 94.4975 12.3153 94.7575 12.168C95.0175 12.0207 95.2298 11.8213 95.3945 11.57C95.5158 11.3793 95.6025 11.1453 95.6545 10.868C95.7152 10.582 95.7455 10.218 95.7455 9.776V9.269ZM105.942 11.791C105.153 12.6837 104.17 13.13 102.991 13.13C102.454 13.13 101.964 13.0477 101.522 12.883C101.089 12.7097 100.716 12.4713 100.404 12.168C100.092 11.856 99.8492 11.4877 99.6759 11.063C99.5025 10.6383 99.4159 10.166 99.4159 9.646C99.4159 9.10867 99.5069 8.619 99.6889 8.177C99.8709 7.72633 100.127 7.34067 100.456 7.02C100.794 6.69067 101.188 6.435 101.639 6.253C102.098 6.071 102.601 5.98 103.147 5.98C104.066 5.98 104.781 6.227 105.292 6.721C105.803 7.215 106.059 7.90833 106.059 8.801C106.059 8.93967 106.037 9.02633 105.994 9.061C105.951 9.087 105.829 9.1 105.63 9.1H101.444C101.409 9.178 101.392 9.321 101.392 9.529C101.392 10.3783 101.574 11.05 101.938 11.544C102.311 12.038 102.813 12.285 103.446 12.285C103.81 12.285 104.17 12.2027 104.525 12.038C104.889 11.8733 105.24 11.6393 105.578 11.336L105.942 11.791ZM103.42 8.372C103.767 8.372 103.988 8.35467 104.083 8.32C104.187 8.27667 104.239 8.18133 104.239 8.034C104.239 7.65267 104.131 7.34067 103.914 7.098C103.697 6.85533 103.424 6.734 103.095 6.734C102.722 6.734 102.389 6.89 102.094 7.202C101.808 7.50533 101.622 7.89533 101.535 8.372H103.42ZM113.19 10.868C113.19 11.2147 113.203 11.492 113.229 11.7C113.255 11.908 113.307 12.0683 113.385 12.181C113.463 12.2937 113.576 12.3717 113.723 12.415C113.871 12.4497 114.07 12.4713 114.321 12.48V13H110.226V12.48C110.469 12.4713 110.664 12.4453 110.811 12.402C110.967 12.35 111.084 12.272 111.162 12.168C111.249 12.0553 111.305 11.9037 111.331 11.713C111.366 11.5137 111.383 11.2623 111.383 10.959V5.59C111.383 5.08733 111.375 4.67567 111.357 4.355C111.34 4.02567 111.318 3.80033 111.292 3.679C111.249 3.46233 111.149 3.31933 110.993 3.25C110.846 3.18067 110.573 3.146 110.174 3.146V2.704L113.19 2.21V10.868ZM115.316 5.434C115.628 5.19133 115.866 4.94867 116.031 4.706C116.204 4.45467 116.291 4.22067 116.291 4.004C116.256 4.02133 116.208 4.03433 116.148 4.043C116.096 4.043 116.048 4.043 116.005 4.043C115.805 4.043 115.636 3.965 115.498 3.809C115.368 3.64433 115.303 3.445 115.303 3.211C115.303 2.925 115.398 2.68667 115.589 2.496C115.779 2.30533 116.018 2.21 116.304 2.21C116.607 2.21 116.845 2.32267 117.019 2.548C117.192 2.76467 117.279 3.05933 117.279 3.432C117.279 3.874 117.144 4.31167 116.876 4.745C116.607 5.17833 116.213 5.59 115.693 5.98L115.316 5.434ZM123.794 8.242C123.794 7.89533 123.785 7.62233 123.768 7.423C123.751 7.215 123.703 7.059 123.625 6.955C123.547 6.84233 123.43 6.76867 123.274 6.734C123.127 6.69067 122.923 6.656 122.663 6.63V6.11H125.601V10.049C125.601 10.5777 125.605 10.9937 125.614 11.297C125.631 11.5917 125.657 11.8127 125.692 11.96C125.718 12.0727 125.748 12.1637 125.783 12.233C125.818 12.2937 125.874 12.3457 125.952 12.389C126.03 12.4237 126.134 12.4497 126.264 12.467C126.403 12.4757 126.58 12.48 126.797 12.48V12.987L124.21 13.143L124.067 11.986H124.015C123.79 12.35 123.473 12.6317 123.066 12.831C122.659 13.0303 122.204 13.13 121.701 13.13C120.774 13.13 120.067 12.8007 119.582 12.142C119.209 11.6393 119.023 10.9243 119.023 9.997V8.242C119.023 7.88667 119.014 7.60933 118.997 7.41C118.98 7.202 118.932 7.046 118.854 6.942C118.785 6.838 118.676 6.76867 118.529 6.734C118.382 6.69067 118.178 6.656 117.918 6.63V6.11H120.83V9.789C120.83 10.6643 120.938 11.3013 121.155 11.7C121.372 12.09 121.718 12.285 122.195 12.285C122.706 12.285 123.101 12.051 123.378 11.583C123.655 11.1323 123.794 10.4693 123.794 9.594V8.242ZM130.307 10.881C130.307 11.2363 130.315 11.518 130.333 11.726C130.359 11.9253 130.406 12.0813 130.476 12.194C130.554 12.298 130.666 12.3673 130.814 12.402C130.97 12.4367 131.178 12.4627 131.438 12.48V13H127.343V12.48C127.594 12.4627 127.793 12.4367 127.941 12.402C128.097 12.3673 128.214 12.298 128.292 12.194C128.378 12.09 128.435 11.9427 128.461 11.752C128.487 11.5613 128.5 11.3013 128.5 10.972V9.347C128.5 8.83567 128.491 8.424 128.474 8.112C128.456 7.79133 128.435 7.57467 128.409 7.462C128.383 7.34933 128.348 7.25833 128.305 7.189C128.261 7.111 128.196 7.05467 128.11 7.02C128.023 6.97667 127.915 6.95067 127.785 6.942C127.655 6.92467 127.49 6.916 127.291 6.916V6.474L129.8 5.98L129.969 7.124H130.021C130.307 6.76 130.645 6.47833 131.035 6.279C131.425 6.07967 131.854 5.98 132.322 5.98C132.876 5.98 133.323 6.058 133.661 6.214C134.007 6.36133 134.315 6.61267 134.584 6.968C134.731 7.16733 134.861 7.42733 134.974 7.748C135.086 8.06 135.143 8.49333 135.143 9.048V10.881C135.143 11.2363 135.151 11.518 135.169 11.726C135.195 11.9253 135.242 12.0813 135.312 12.194C135.39 12.298 135.502 12.3673 135.65 12.402C135.797 12.4367 135.996 12.4627 136.248 12.48V13H132.179V12.48C132.439 12.4713 132.642 12.4497 132.79 12.415C132.946 12.3717 133.063 12.298 133.141 12.194C133.219 12.09 133.271 11.9427 133.297 11.752C133.323 11.5527 133.336 11.2927 133.336 10.972V9.204C133.336 8.762 133.31 8.38933 133.258 8.086C133.206 7.78267 133.119 7.54 132.998 7.358C132.885 7.16733 132.733 7.033 132.543 6.955C132.352 6.86833 132.114 6.825 131.828 6.825C131.55 6.825 131.312 6.903 131.113 7.059C130.913 7.215 130.74 7.43167 130.593 7.709C130.515 7.865 130.445 8.06867 130.385 8.32C130.333 8.56267 130.307 8.81833 130.307 9.087V10.881ZM139.752 10.868C139.752 11.2147 139.765 11.492 139.791 11.7C139.817 11.908 139.869 12.0683 139.947 12.181C140.025 12.2937 140.138 12.3717 140.285 12.415C140.432 12.4497 140.632 12.4713 140.883 12.48V13H136.788V12.48C137.031 12.4713 137.226 12.4453 137.373 12.402C137.529 12.35 137.646 12.272 137.724 12.168C137.811 12.0553 137.867 11.9037 137.893 11.713C137.928 11.5137 137.945 11.2623 137.945 10.959V9.36C137.945 8.85733 137.936 8.44567 137.919 8.125C137.902 7.79567 137.88 7.57033 137.854 7.449C137.811 7.23233 137.711 7.08933 137.555 7.02C137.408 6.95067 137.135 6.916 136.736 6.916V6.474L139.752 5.98V10.868ZM137.841 3.224C137.841 2.938 137.936 2.69967 138.127 2.509C138.326 2.30967 138.565 2.21 138.842 2.21C139.128 2.21 139.366 2.30967 139.557 2.509C139.756 2.69967 139.856 2.938 139.856 3.224C139.856 3.50133 139.756 3.73967 139.557 3.939C139.366 4.12967 139.128 4.225 138.842 4.225C138.565 4.225 138.326 4.12967 138.127 3.939C137.936 3.73967 137.841 3.50133 137.841 3.224ZM142.294 7.787C142.199 7.53567 142.108 7.33633 142.021 7.189C141.935 7.033 141.844 6.916 141.748 6.838C141.662 6.75133 141.562 6.695 141.449 6.669C141.345 6.643 141.22 6.63 141.072 6.63V6.11H144.959V6.63C144.743 6.63 144.569 6.63867 144.439 6.656C144.318 6.67333 144.223 6.69933 144.153 6.734C144.093 6.76867 144.054 6.81633 144.036 6.877C144.019 6.929 144.01 6.98967 144.01 7.059C144.01 7.17167 144.032 7.30167 144.075 7.449C144.119 7.59633 144.171 7.74367 144.231 7.891L145.466 11.297H145.518L146.909 7.904C146.97 7.75667 147.018 7.62667 147.052 7.514C147.087 7.39267 147.104 7.28433 147.104 7.189C147.104 6.99833 147.039 6.85967 146.909 6.773C146.779 6.68633 146.55 6.63867 146.22 6.63V6.11H149.093V6.63C148.859 6.63 148.656 6.69067 148.482 6.812C148.318 6.93333 148.144 7.202 147.962 7.618L145.531 13.13H144.348L142.294 7.787ZM155.834 11.791C155.046 12.6837 154.062 13.13 152.883 13.13C152.346 13.13 151.856 13.0477 151.414 12.883C150.981 12.7097 150.608 12.4713 150.296 12.168C149.984 11.856 149.742 11.4877 149.568 11.063C149.395 10.6383 149.308 10.166 149.308 9.646C149.308 9.10867 149.399 8.619 149.581 8.177C149.763 7.72633 150.019 7.34067 150.348 7.02C150.686 6.69067 151.081 6.435 151.531 6.253C151.991 6.071 152.493 5.98 153.039 5.98C153.958 5.98 154.673 6.227 155.184 6.721C155.696 7.215 155.951 7.90833 155.951 8.801C155.951 8.93967 155.93 9.02633 155.886 9.061C155.843 9.087 155.722 9.1 155.522 9.1H151.336C151.302 9.178 151.284 9.321 151.284 9.529C151.284 10.3783 151.466 11.05 151.83 11.544C152.203 12.038 152.706 12.285 153.338 12.285C153.702 12.285 154.062 12.2027 154.417 12.038C154.781 11.8733 155.132 11.6393 155.47 11.336L155.834 11.791ZM153.312 8.372C153.659 8.372 153.88 8.35467 153.975 8.32C154.079 8.27667 154.131 8.18133 154.131 8.034C154.131 7.65267 154.023 7.34067 153.806 7.098C153.59 6.85533 153.317 6.734 152.987 6.734C152.615 6.734 152.281 6.89 151.986 7.202C151.7 7.50533 151.514 7.89533 151.427 8.372H153.312ZM159.773 10.985C159.773 11.323 159.786 11.5917 159.812 11.791C159.847 11.9817 159.912 12.129 160.007 12.233C160.102 12.337 160.241 12.4063 160.423 12.441C160.605 12.467 160.848 12.48 161.151 12.48V13H156.809V12.48C157.069 12.4627 157.277 12.4367 157.433 12.402C157.589 12.3673 157.706 12.298 157.784 12.194C157.862 12.09 157.91 11.9427 157.927 11.752C157.953 11.5527 157.966 11.2883 157.966 10.959V9.373C157.966 8.83567 157.953 8.40667 157.927 8.086C157.901 7.76533 157.845 7.51833 157.758 7.345C157.671 7.17167 157.546 7.059 157.381 7.007C157.225 6.94633 157.017 6.916 156.757 6.916V6.461L159.357 5.98L159.565 7.475H159.617C159.851 7.01567 160.159 6.65167 160.54 6.383C160.921 6.11433 161.324 5.98 161.749 5.98C162.078 5.98 162.347 6.06233 162.555 6.227C162.763 6.39167 162.867 6.59967 162.867 6.851C162.867 7.12833 162.785 7.36233 162.62 7.553C162.464 7.74367 162.247 7.839 161.97 7.839C161.84 7.839 161.723 7.813 161.619 7.761C161.515 7.709 161.42 7.65267 161.333 7.592C161.255 7.52267 161.173 7.462 161.086 7.41C161.008 7.34933 160.926 7.319 160.839 7.319C160.674 7.319 160.518 7.42733 160.371 7.644C160.224 7.86067 160.102 8.151 160.007 8.515C159.938 8.775 159.881 9.06967 159.838 9.399C159.795 9.71967 159.773 10.0403 159.773 10.361V10.985ZM163.999 13H163.596V10.634H164.142C164.289 11.258 164.501 11.713 164.779 11.999C165.056 12.285 165.416 12.428 165.858 12.428C166.178 12.428 166.425 12.363 166.599 12.233C166.781 12.0943 166.872 11.908 166.872 11.674C166.872 11.4313 166.763 11.1973 166.547 10.972C166.33 10.738 165.979 10.491 165.494 10.231C164.835 9.87567 164.363 9.52467 164.077 9.178C163.791 8.82267 163.648 8.424 163.648 7.982C163.648 7.696 163.7 7.43167 163.804 7.189C163.916 6.93767 164.064 6.721 164.246 6.539C164.436 6.357 164.662 6.21833 164.922 6.123C165.182 6.019 165.463 5.967 165.767 5.967C166.035 5.967 166.3 6.006 166.56 6.084C166.828 6.162 167.062 6.27033 167.262 6.409L167.496 6.097H167.834V8.06H167.327C167.127 7.566 166.919 7.21067 166.703 6.994C166.495 6.77733 166.239 6.669 165.936 6.669C165.693 6.669 165.498 6.734 165.351 6.864C165.212 6.994 165.143 7.16733 165.143 7.384C165.143 7.62667 165.247 7.85633 165.455 8.073C165.671 8.28967 166.027 8.528 166.521 8.788C166.867 8.97867 167.166 9.165 167.418 9.347C167.669 9.529 167.873 9.71533 168.029 9.906C168.185 10.088 168.297 10.283 168.367 10.491C168.445 10.6903 168.484 10.907 168.484 11.141C168.484 11.4443 168.427 11.7173 168.315 11.96C168.202 12.2027 168.042 12.4107 167.834 12.584C167.626 12.7573 167.374 12.8917 167.08 12.987C166.794 13.0823 166.473 13.13 166.118 13.13C165.745 13.13 165.398 13.0823 165.078 12.987C164.757 12.883 164.493 12.7357 164.285 12.545L163.999 13Z" fill="#0F172A"/>
<path d="M7.942 24.59C7.942 25.1693 7.88333 25.679 7.766 26.119C7.656 26.559 7.47267 26.9257 7.216 27.219C6.96667 27.5123 6.64033 27.736 6.237 27.89C5.83367 28.0367 5.346 28.11 4.774 28.11C4.23133 28.11 3.75833 28.0587 3.355 27.956C2.95167 27.846 2.61433 27.67 2.343 27.428C2.07167 27.1787 1.87 26.856 1.738 26.46C1.606 26.064 1.54 25.5763 1.54 24.997V22.093C1.54 21.5503 1.52533 21.1323 1.496 20.839C1.474 20.5457 1.40067 20.3293 1.276 20.19C1.188 20.0947 1.067 20.0323 0.913 20.003C0.766333 19.9663 0.568333 19.948 0.319 19.948V19.53H4.07V19.948C3.82067 19.948 3.619 19.9627 3.465 19.992C3.311 20.0213 3.19 20.0947 3.102 20.212C2.99933 20.344 2.93333 20.5567 2.904 20.85C2.87467 21.136 2.86 21.5503 2.86 22.093V25.085C2.86 25.459 2.89667 25.7927 2.97 26.086C3.05067 26.372 3.179 26.6177 3.355 26.823C3.531 27.021 3.75833 27.1713 4.037 27.274C4.323 27.3767 4.67133 27.428 5.082 27.428C5.81533 27.428 6.36533 27.2263 6.732 26.823C7.09867 26.4123 7.282 25.811 7.282 25.019V22.368C7.282 21.7153 7.25633 21.2203 7.205 20.883C7.15367 20.5457 7.05833 20.3073 6.919 20.168C6.81633 20.0727 6.688 20.014 6.534 19.992C6.38 19.9627 6.18933 19.948 5.962 19.948V19.53H9.152V19.948C8.91733 19.948 8.723 19.9663 8.569 20.003C8.42233 20.0397 8.305 20.1203 8.217 20.245C8.107 20.399 8.03367 20.641 7.997 20.971C7.96033 21.2937 7.942 21.7593 7.942 22.368V24.59ZM11.4961 26.273C11.4961 26.5737 11.5035 26.812 11.5181 26.988C11.5328 27.1567 11.5695 27.2887 11.6281 27.384C11.6941 27.472 11.7858 27.5307 11.9031 27.56C12.0278 27.5893 12.1965 27.6113 12.4091 27.626V28H9.52712V27.626C9.73245 27.6113 9.89378 27.5893 10.0111 27.56C10.1358 27.5307 10.2311 27.472 10.2971 27.384C10.3631 27.296 10.4035 27.1713 10.4181 27.01C10.4401 26.8487 10.4511 26.6287 10.4511 26.35V24.887C10.4511 24.0143 10.4291 23.4827 10.3851 23.292C10.3631 23.1967 10.3338 23.1197 10.2971 23.061C10.2678 22.995 10.2201 22.9473 10.1541 22.918C10.0881 22.8813 10.0038 22.8593 9.90112 22.852C9.79845 22.8373 9.66645 22.83 9.50512 22.83V22.478L11.2651 22.06L11.3971 23.149H11.4411C11.7198 22.8043 12.0461 22.5367 12.4201 22.346C12.7941 22.1553 13.2011 22.06 13.6411 22.06C13.9785 22.06 14.2865 22.115 14.5651 22.225C14.8438 22.335 15.0565 22.4853 15.2031 22.676C15.3278 22.8447 15.4158 23.0647 15.4671 23.336C15.5185 23.6 15.5441 23.9667 15.5441 24.436V26.273C15.5441 26.5737 15.5515 26.812 15.5661 26.988C15.5881 27.1567 15.6285 27.2887 15.6871 27.384C15.7458 27.472 15.8338 27.5307 15.9511 27.56C16.0758 27.5893 16.2371 27.6113 16.4351 27.626V28H13.5861V27.626C13.7915 27.6187 13.9528 27.6003 14.0701 27.571C14.1948 27.5343 14.2865 27.472 14.3451 27.384C14.4111 27.296 14.4515 27.1713 14.4661 27.01C14.4881 26.8413 14.4991 26.6213 14.4991 26.35V24.898C14.4991 24.48 14.4771 24.128 14.4331 23.842C14.3891 23.556 14.3158 23.325 14.2131 23.149C14.1178 22.973 13.9895 22.8483 13.8281 22.775C13.6668 22.6943 13.4725 22.654 13.2451 22.654C12.9151 22.654 12.6108 22.742 12.3321 22.918C12.0608 23.0867 11.8481 23.3213 11.6941 23.622C11.6575 23.6953 11.6245 23.765 11.5951 23.831C11.5731 23.897 11.5548 23.974 11.5401 24.062C11.5255 24.15 11.5145 24.2527 11.5071 24.37C11.4998 24.48 11.4961 24.623 11.4961 24.799V26.273ZM22.4461 26.977C21.8228 27.7323 21.0491 28.11 20.1251 28.11C19.6924 28.11 19.3001 28.0403 18.9481 27.901C18.5961 27.7543 18.2918 27.5527 18.0351 27.296C17.7858 27.032 17.5914 26.7203 17.4521 26.361C17.3128 25.9943 17.2431 25.591 17.2431 25.151C17.2431 24.7037 17.3164 24.2893 17.4631 23.908C17.6098 23.5267 17.8151 23.2003 18.0791 22.929C18.3504 22.6577 18.6694 22.445 19.0361 22.291C19.4101 22.137 19.8171 22.06 20.2571 22.06C20.9684 22.06 21.5184 22.2543 21.9071 22.643C22.2958 23.0243 22.4901 23.5743 22.4901 24.293C22.4901 24.3957 22.4681 24.458 22.4241 24.48C22.3874 24.502 22.2958 24.513 22.1491 24.513H18.5301C18.5154 24.5717 18.5044 24.645 18.4971 24.733C18.4898 24.8137 18.4861 24.9053 18.4861 25.008C18.4861 25.3893 18.5301 25.7377 18.6181 26.053C18.7134 26.361 18.8454 26.625 19.0141 26.845C19.1901 27.065 19.3954 27.2373 19.6301 27.362C19.8721 27.4793 20.1398 27.538 20.4331 27.538C20.7411 27.538 21.0271 27.472 21.2911 27.34C21.5551 27.2007 21.8264 26.977 22.1051 26.669L22.4461 26.977ZM20.6311 24.007C20.7778 24.007 20.8951 24.0033 20.9831 23.996C21.0711 23.9887 21.1371 23.974 21.1811 23.952C21.2251 23.93 21.2544 23.9007 21.2691 23.864C21.2838 23.82 21.2911 23.765 21.2911 23.699C21.2911 23.3617 21.1811 23.094 20.9611 22.896C20.7484 22.6907 20.4551 22.588 20.0811 22.588C19.2891 22.588 18.7978 23.061 18.6071 24.007H20.6311ZM28.599 26.24C28.599 26.548 28.6063 26.79 28.621 26.966C28.6356 27.142 28.6723 27.2777 28.731 27.373C28.797 27.461 28.8886 27.5197 29.006 27.549C29.1233 27.5783 29.2883 27.6003 29.501 27.615V28H26.575V27.615C26.7876 27.6003 26.9563 27.5783 27.081 27.549C27.2056 27.5197 27.301 27.461 27.367 27.373C27.433 27.285 27.4733 27.1603 27.488 26.999C27.51 26.8303 27.521 26.6067 27.521 26.328V24.92C27.521 24.502 27.5136 24.1537 27.499 23.875C27.4916 23.5963 27.4733 23.4057 27.444 23.303C27.422 23.2077 27.3963 23.1343 27.367 23.083C27.3376 23.0243 27.29 22.9803 27.224 22.951C27.158 22.9143 27.07 22.8923 26.96 22.885C26.8573 22.8703 26.7216 22.863 26.553 22.863V22.478L28.346 22.06L28.489 23.16H28.544C28.874 22.786 29.2186 22.511 29.578 22.335C29.9446 22.1517 30.348 22.06 30.788 22.06C31.25 22.06 31.6386 22.1553 31.954 22.346C32.2693 22.5293 32.4893 22.797 32.614 23.149H32.658C32.9293 22.8043 33.2593 22.5367 33.648 22.346C34.0366 22.1553 34.451 22.06 34.891 22.06C35.2356 22.06 35.5473 22.1187 35.826 22.236C36.112 22.346 36.3283 22.5 36.475 22.698C36.607 22.8667 36.6986 23.0903 36.75 23.369C36.8086 23.6403 36.838 24.0143 36.838 24.491V26.24C36.838 26.5407 36.8453 26.779 36.86 26.955C36.882 27.131 36.9223 27.2667 36.981 27.362C37.0396 27.4573 37.1276 27.5197 37.245 27.549C37.3696 27.5783 37.5383 27.6003 37.751 27.615V28H34.825V27.615C35.0303 27.6077 35.1953 27.5893 35.32 27.56C35.4446 27.5233 35.54 27.461 35.606 27.373C35.672 27.2777 35.7123 27.1493 35.727 26.988C35.749 26.8267 35.76 26.6067 35.76 26.328V24.942C35.76 24.524 35.738 24.172 35.694 23.886C35.65 23.5927 35.5766 23.358 35.474 23.182C35.3713 22.9987 35.2356 22.8667 35.067 22.786C34.9056 22.7053 34.7076 22.665 34.473 22.665C34.1503 22.665 33.846 22.7567 33.56 22.94C33.2813 23.116 33.0613 23.3543 32.9 23.655C32.8633 23.7283 32.8303 23.8017 32.801 23.875C32.779 23.941 32.7606 24.018 32.746 24.106C32.7313 24.1867 32.7203 24.2857 32.713 24.403C32.713 24.5203 32.713 24.667 32.713 24.843V26.24C32.713 26.5407 32.7203 26.779 32.735 26.955C32.7496 27.131 32.7863 27.2667 32.845 27.362C32.911 27.4573 33.0063 27.5197 33.131 27.549C33.2556 27.5783 33.4243 27.6003 33.637 27.615V28H30.711V27.615C30.9163 27.6003 31.0813 27.5783 31.206 27.549C31.3306 27.5197 31.4223 27.461 31.481 27.373C31.547 27.285 31.5873 27.1603 31.602 26.999C31.624 26.8303 31.635 26.6067 31.635 26.328V24.942C31.635 24.5167 31.613 24.161 31.569 23.875C31.525 23.5817 31.4516 23.347 31.349 23.171C31.2536 22.9877 31.1253 22.8593 30.964 22.786C30.8026 22.7053 30.6046 22.665 30.37 22.665C30.04 22.665 29.7283 22.7567 29.435 22.94C29.149 23.116 28.9326 23.3543 28.786 23.655C28.7493 23.7283 28.7163 23.8017 28.687 23.875C28.665 23.941 28.6466 24.018 28.632 24.106C28.6173 24.1867 28.6063 24.2857 28.599 24.403C28.599 24.5203 28.599 24.667 28.599 24.843V26.24ZM43.7156 26.977C43.0923 27.7323 42.3186 28.11 41.3946 28.11C40.962 28.11 40.5696 28.0403 40.2176 27.901C39.8656 27.7543 39.5613 27.5527 39.3046 27.296C39.0553 27.032 38.861 26.7203 38.7216 26.361C38.5823 25.9943 38.5126 25.591 38.5126 25.151C38.5126 24.7037 38.586 24.2893 38.7326 23.908C38.8793 23.5267 39.0846 23.2003 39.3486 22.929C39.62 22.6577 39.939 22.445 40.3056 22.291C40.6796 22.137 41.0866 22.06 41.5266 22.06C42.238 22.06 42.788 22.2543 43.1766 22.643C43.5653 23.0243 43.7596 23.5743 43.7596 24.293C43.7596 24.3957 43.7376 24.458 43.6936 24.48C43.657 24.502 43.5653 24.513 43.4186 24.513H39.7996C39.785 24.5717 39.774 24.645 39.7666 24.733C39.7593 24.8137 39.7556 24.9053 39.7556 25.008C39.7556 25.3893 39.7996 25.7377 39.8876 26.053C39.983 26.361 40.115 26.625 40.2836 26.845C40.4596 27.065 40.665 27.2373 40.8996 27.362C41.1416 27.4793 41.4093 27.538 41.7026 27.538C42.0106 27.538 42.2966 27.472 42.5606 27.34C42.8246 27.2007 43.096 26.977 43.3746 26.669L43.7156 26.977ZM41.9006 24.007C42.0473 24.007 42.1646 24.0033 42.2526 23.996C42.3406 23.9887 42.4066 23.974 42.4506 23.952C42.4946 23.93 42.524 23.9007 42.5386 23.864C42.5533 23.82 42.5606 23.765 42.5606 23.699C42.5606 23.3617 42.4506 23.094 42.2306 22.896C42.018 22.6907 41.7246 22.588 41.3506 22.588C40.5586 22.588 40.0673 23.061 39.8766 24.007H41.9006ZM46.7213 26.251C46.7213 26.5517 46.7286 26.79 46.7433 26.966C46.758 27.142 46.7946 27.2777 46.8533 27.373C46.9193 27.461 47.011 27.5197 47.1283 27.549C47.2456 27.5783 47.4106 27.6003 47.6233 27.615V28H44.6973V27.615C44.91 27.6077 45.0786 27.5893 45.2033 27.56C45.328 27.5233 45.4233 27.461 45.4893 27.373C45.5553 27.285 45.5956 27.1603 45.6103 26.999C45.6323 26.8303 45.6433 26.6067 45.6433 26.328V25.041C45.6433 24.5423 45.636 24.1537 45.6213 23.875C45.614 23.5963 45.5773 23.391 45.5113 23.259C45.4526 23.127 45.3573 23.05 45.2253 23.028C45.0933 22.9987 44.91 22.984 44.6753 22.984V22.599L46.6003 22.181L46.7543 23.545H46.7983C46.8936 23.325 47.011 23.1233 47.1503 22.94C47.297 22.7567 47.4546 22.6027 47.6233 22.478C47.792 22.346 47.968 22.2433 48.1513 22.17C48.3346 22.0967 48.5216 22.06 48.7123 22.06C48.947 22.06 49.1303 22.1187 49.2623 22.236C49.4016 22.346 49.4713 22.4963 49.4713 22.687C49.4713 22.863 49.4163 23.0023 49.3063 23.105C49.1963 23.2003 49.0386 23.248 48.8333 23.248C48.716 23.248 48.617 23.2333 48.5363 23.204C48.4556 23.1747 48.3823 23.1453 48.3163 23.116C48.2576 23.0793 48.199 23.0463 48.1403 23.017C48.089 22.9877 48.0303 22.973 47.9643 22.973C47.7663 22.973 47.5683 23.1013 47.3703 23.358C47.1723 23.6073 47.0183 23.9263 46.9083 24.315C46.8496 24.5277 46.802 24.7697 46.7653 25.041C46.736 25.305 46.7213 25.5837 46.7213 25.877V26.251ZM50.6655 23.534C50.5775 23.314 50.4968 23.1417 50.4235 23.017C50.3575 22.885 50.2842 22.786 50.2035 22.72C50.1228 22.654 50.0312 22.6137 49.9285 22.599C49.8332 22.577 49.7158 22.5623 49.5765 22.555V22.17H52.4915V22.555C52.3448 22.5623 52.2238 22.5697 52.1285 22.577C52.0332 22.5843 51.9562 22.6027 51.8975 22.632C51.8462 22.654 51.8095 22.6907 51.7875 22.742C51.7655 22.786 51.7545 22.852 51.7545 22.94C51.7545 23.0647 51.7692 23.182 51.7985 23.292C51.8352 23.402 51.8718 23.512 51.9085 23.622L53.0745 26.812H53.1185L54.1195 24.447C54.2735 24.0803 54.3835 23.787 54.4495 23.567C54.5155 23.347 54.5485 23.1527 54.5485 22.984C54.5485 22.8153 54.5045 22.7017 54.4165 22.643C54.3285 22.5843 54.1378 22.555 53.8445 22.555V22.17H56.0335V22.555C55.9162 22.555 55.8098 22.5843 55.7145 22.643C55.6192 22.7017 55.5348 22.775 55.4615 22.863C55.4028 22.9437 55.3405 23.0537 55.2745 23.193C55.2158 23.325 55.1535 23.4643 55.0875 23.611C55.0288 23.7577 54.9738 23.9043 54.9225 24.051C54.8712 24.1903 54.8235 24.304 54.7795 24.392L53.1625 28.121H52.5245L50.6655 23.534ZM61.7303 26.977C61.1069 27.7323 60.3333 28.11 59.4093 28.11C58.9766 28.11 58.5843 28.0403 58.2323 27.901C57.8803 27.7543 57.5759 27.5527 57.3193 27.296C57.0699 27.032 56.8756 26.7203 56.7363 26.361C56.5969 25.9943 56.5273 25.591 56.5273 25.151C56.5273 24.7037 56.6006 24.2893 56.7473 23.908C56.8939 23.5267 57.0993 23.2003 57.3633 22.929C57.6346 22.6577 57.9536 22.445 58.3203 22.291C58.6943 22.137 59.1013 22.06 59.5413 22.06C60.2526 22.06 60.8026 22.2543 61.1913 22.643C61.5799 23.0243 61.7743 23.5743 61.7743 24.293C61.7743 24.3957 61.7523 24.458 61.7083 24.48C61.6716 24.502 61.5799 24.513 61.4333 24.513H57.8143C57.7996 24.5717 57.7886 24.645 57.7813 24.733C57.7739 24.8137 57.7703 24.9053 57.7703 25.008C57.7703 25.3893 57.8143 25.7377 57.9023 26.053C57.9976 26.361 58.1296 26.625 58.2983 26.845C58.4743 27.065 58.6796 27.2373 58.9143 27.362C59.1563 27.4793 59.4239 27.538 59.7173 27.538C60.0253 27.538 60.3113 27.472 60.5753 27.34C60.8393 27.2007 61.1106 26.977 61.3893 26.669L61.7303 26.977ZM59.9153 24.007C60.0619 24.007 60.1793 24.0033 60.2673 23.996C60.3553 23.9887 60.4213 23.974 60.4653 23.952C60.5093 23.93 60.5386 23.9007 60.5533 23.864C60.5679 23.82 60.5753 23.765 60.5753 23.699C60.5753 23.3617 60.4653 23.094 60.2453 22.896C60.0326 22.6907 59.7393 22.588 59.3653 22.588C58.5733 22.588 58.0819 23.061 57.8913 24.007H59.9153ZM64.8019 26.251C64.8019 26.537 64.8129 26.768 64.8349 26.944C64.8643 27.1127 64.9156 27.2483 64.9889 27.351C65.0623 27.4463 65.1649 27.5123 65.2969 27.549C65.4289 27.5857 65.6049 27.6077 65.8249 27.615V28H62.6679V27.615C62.8879 27.6077 63.0676 27.5857 63.2069 27.549C63.3463 27.505 63.4526 27.439 63.5259 27.351C63.6066 27.2557 63.6579 27.1273 63.6799 26.966C63.7093 26.7973 63.7239 26.5847 63.7239 26.328V24.92C63.7239 24.4947 63.7166 24.1463 63.7019 23.875C63.6946 23.5963 63.6763 23.4057 63.6469 23.303C63.6103 23.1343 63.5259 23.0207 63.3939 22.962C63.2619 22.896 63.0126 22.863 62.6459 22.863V22.478L64.8019 22.06V26.251ZM63.5369 19.827C63.5369 19.6363 63.6029 19.475 63.7349 19.343C63.8669 19.211 64.0283 19.145 64.2189 19.145C64.4096 19.145 64.5709 19.211 64.7029 19.343C64.8349 19.475 64.9009 19.6363 64.9009 19.827C64.9009 20.0177 64.8349 20.179 64.7029 20.311C64.5709 20.443 64.4096 20.509 64.2189 20.509C64.0283 20.509 63.8669 20.443 63.7349 20.311C63.6029 20.179 63.5369 20.0177 63.5369 19.827ZM68.342 26.284C68.342 26.5627 68.353 26.7863 68.375 26.955C68.397 27.1237 68.441 27.2557 68.507 27.351C68.5803 27.4463 68.6793 27.5123 68.804 27.549C68.936 27.5857 69.1083 27.6077 69.321 27.615V28H66.285V27.615C66.505 27.6077 66.681 27.5857 66.813 27.549C66.945 27.505 67.0476 27.439 67.121 27.351C67.2016 27.263 67.253 27.142 67.275 26.988C67.3043 26.8267 67.319 26.6177 67.319 26.361V21.62C67.319 21.224 67.3116 20.894 67.297 20.63C67.2896 20.3587 67.275 20.1753 67.253 20.08C67.2163 19.9113 67.1283 19.7977 66.989 19.739C66.857 19.6803 66.615 19.651 66.263 19.651V19.277L68.342 18.87V26.284ZM71.9191 26.284C71.9191 26.5627 71.9301 26.7863 71.9521 26.955C71.9741 27.1237 72.0181 27.2557 72.0841 27.351C72.1575 27.4463 72.2565 27.5123 72.3811 27.549C72.5131 27.5857 72.6855 27.6077 72.8981 27.615V28H69.8621V27.615C70.0821 27.6077 70.2581 27.5857 70.3901 27.549C70.5221 27.505 70.6248 27.439 70.6981 27.351C70.7788 27.263 70.8301 27.142 70.8521 26.988C70.8815 26.8267 70.8961 26.6177 70.8961 26.361V21.62C70.8961 21.224 70.8888 20.894 70.8741 20.63C70.8668 20.3587 70.8521 20.1753 70.8301 20.08C70.7935 19.9113 70.7055 19.7977 70.5661 19.739C70.4341 19.6803 70.1921 19.651 69.8401 19.651V19.277L71.9191 18.87V26.284ZM78.9393 26.977C78.3159 27.7323 77.5423 28.11 76.6183 28.11C76.1856 28.11 75.7933 28.0403 75.4413 27.901C75.0893 27.7543 74.7849 27.5527 74.5283 27.296C74.2789 27.032 74.0846 26.7203 73.9453 26.361C73.8059 25.9943 73.7363 25.591 73.7363 25.151C73.7363 24.7037 73.8096 24.2893 73.9563 23.908C74.1029 23.5267 74.3083 23.2003 74.5723 22.929C74.8436 22.6577 75.1626 22.445 75.5293 22.291C75.9033 22.137 76.3103 22.06 76.7503 22.06C77.4616 22.06 78.0116 22.2543 78.4003 22.643C78.7889 23.0243 78.9833 23.5743 78.9833 24.293C78.9833 24.3957 78.9613 24.458 78.9173 24.48C78.8806 24.502 78.7889 24.513 78.6423 24.513H75.0233C75.0086 24.5717 74.9976 24.645 74.9903 24.733C74.9829 24.8137 74.9793 24.9053 74.9793 25.008C74.9793 25.3893 75.0233 25.7377 75.1113 26.053C75.2066 26.361 75.3386 26.625 75.5073 26.845C75.6833 27.065 75.8886 27.2373 76.1233 27.362C76.3653 27.4793 76.6329 27.538 76.9263 27.538C77.2343 27.538 77.5203 27.472 77.7843 27.34C78.0483 27.2007 78.3196 26.977 78.5983 26.669L78.9393 26.977ZM77.1243 24.007C77.2709 24.007 77.3883 24.0033 77.4763 23.996C77.5643 23.9887 77.6303 23.974 77.6743 23.952C77.7183 23.93 77.7476 23.9007 77.7623 23.864C77.7769 23.82 77.7843 23.765 77.7843 23.699C77.7843 23.3617 77.6743 23.094 77.4543 22.896C77.2416 22.6907 76.9483 22.588 76.5743 22.588C75.7823 22.588 75.2909 23.061 75.1003 24.007H77.1243ZM84.5959 23.93C84.5959 23.6293 84.5886 23.3947 84.5739 23.226C84.5593 23.05 84.5189 22.918 84.4529 22.83C84.3943 22.7347 84.3026 22.6723 84.1779 22.643C84.0606 22.6063 83.8956 22.577 83.6829 22.555V22.17H85.6739V25.547C85.6739 25.965 85.6776 26.306 85.6849 26.57C85.6996 26.834 85.7179 27.032 85.7399 27.164C85.7546 27.2593 85.7766 27.3363 85.8059 27.395C85.8426 27.4463 85.8939 27.4903 85.9599 27.527C86.0259 27.5563 86.1103 27.5783 86.2129 27.593C86.3229 27.6003 86.4623 27.604 86.6309 27.604V27.989L84.8159 28.121L84.6949 26.801H84.6509C84.3723 27.2557 84.0496 27.5893 83.6829 27.802C83.3236 28.0073 82.9459 28.11 82.5499 28.11C82.2419 28.11 81.9413 28.0513 81.6479 27.934C81.3619 27.8167 81.1456 27.659 80.9989 27.461C80.8743 27.2997 80.7826 27.076 80.7239 26.79C80.6726 26.504 80.6469 26.1337 80.6469 25.679V23.93C80.6469 23.6293 80.6396 23.3947 80.6249 23.226C80.6103 23.05 80.5699 22.918 80.5039 22.83C80.4453 22.7347 80.3536 22.6723 80.2289 22.643C80.1116 22.6063 79.9466 22.577 79.7339 22.555V22.17H81.7249V25.173C81.7249 25.9723 81.8166 26.5517 81.9999 26.911C82.1906 27.2703 82.4913 27.45 82.9019 27.45C83.5473 27.45 84.0496 27.0283 84.4089 26.185C84.4456 26.097 84.4749 26.0163 84.4969 25.943C84.5189 25.8697 84.5373 25.789 84.5519 25.701C84.5666 25.613 84.5776 25.514 84.5849 25.404C84.5923 25.294 84.5959 25.162 84.5959 25.008V23.93ZM87.8181 28H87.5761V26.108H87.8511C88.1371 27.142 88.6577 27.659 89.4131 27.659C89.7064 27.659 89.9374 27.5893 90.1061 27.45C90.2821 27.3033 90.3701 27.0833 90.3701 26.79C90.3701 26.68 90.3517 26.5883 90.3151 26.515C90.2857 26.4343 90.2234 26.3537 90.1281 26.273C90.0401 26.185 89.9117 26.086 89.7431 25.976C89.5817 25.866 89.3654 25.7267 89.0941 25.558C88.8447 25.404 88.6284 25.261 88.4451 25.129C88.2617 24.997 88.1077 24.865 87.9831 24.733C87.8584 24.5937 87.7631 24.447 87.6971 24.293C87.6384 24.139 87.6091 23.9593 87.6091 23.754C87.6091 23.5047 87.6494 23.2773 87.7301 23.072C87.8181 22.8593 87.9354 22.6797 88.0821 22.533C88.2287 22.3863 88.4011 22.2727 88.5991 22.192C88.7971 22.104 89.0134 22.06 89.2481 22.06C89.4461 22.06 89.6514 22.093 89.8641 22.159C90.0767 22.2177 90.2637 22.2983 90.4251 22.401L90.6451 22.17H90.8541V23.754H90.5681C90.4067 23.3067 90.2307 22.9877 90.0401 22.797C89.8494 22.6063 89.6147 22.511 89.3361 22.511C89.0867 22.511 88.8851 22.577 88.7311 22.709C88.5844 22.841 88.5111 23.0243 88.5111 23.259C88.5111 23.3837 88.5294 23.4937 88.5661 23.589C88.6101 23.677 88.6761 23.765 88.7641 23.853C88.8521 23.941 88.9621 24.0327 89.0941 24.128C89.2334 24.216 89.3984 24.3187 89.5891 24.436C89.9044 24.634 90.1721 24.81 90.3921 24.964C90.6194 25.118 90.8027 25.272 90.9421 25.426C91.0814 25.5727 91.1841 25.7267 91.2501 25.888C91.3161 26.0493 91.3491 26.2327 91.3491 26.438C91.3491 26.9587 91.1804 27.3693 90.8431 27.67C90.5057 27.9633 90.0621 28.11 89.5121 28.11C88.9401 28.11 88.4487 27.945 88.0381 27.615L87.8181 28ZM97.6092 26.977C96.9859 27.7323 96.2122 28.11 95.2882 28.11C94.8555 28.11 94.4632 28.0403 94.1112 27.901C93.7592 27.7543 93.4549 27.5527 93.1982 27.296C92.9489 27.032 92.7545 26.7203 92.6152 26.361C92.4759 25.9943 92.4062 25.591 92.4062 25.151C92.4062 24.7037 92.4795 24.2893 92.6262 23.908C92.7729 23.5267 92.9782 23.2003 93.2422 22.929C93.5135 22.6577 93.8325 22.445 94.1992 22.291C94.5732 22.137 94.9802 22.06 95.4202 22.06C96.1315 22.06 96.6815 22.2543 97.0702 22.643C97.4589 23.0243 97.6532 23.5743 97.6532 24.293C97.6532 24.3957 97.6312 24.458 97.5872 24.48C97.5505 24.502 97.4589 24.513 97.3122 24.513H93.6932C93.6785 24.5717 93.6675 24.645 93.6602 24.733C93.6529 24.8137 93.6492 24.9053 93.6492 25.008C93.6492 25.3893 93.6932 25.7377 93.7812 26.053C93.8765 26.361 94.0085 26.625 94.1772 26.845C94.3532 27.065 94.5585 27.2373 94.7932 27.362C95.0352 27.4793 95.3029 27.538 95.5962 27.538C95.9042 27.538 96.1902 27.472 96.4542 27.34C96.7182 27.2007 96.9895 26.977 97.2682 26.669L97.6092 26.977ZM95.7942 24.007C95.9409 24.007 96.0582 24.0033 96.1462 23.996C96.2342 23.9887 96.3002 23.974 96.3442 23.952C96.3882 23.93 96.4175 23.9007 96.4322 23.864C96.4469 23.82 96.4542 23.765 96.4542 23.699C96.4542 23.3617 96.3442 23.094 96.1242 22.896C95.9115 22.6907 95.6182 22.588 95.2442 22.588C94.4522 22.588 93.9609 23.061 93.7702 24.007H95.7942ZM103.619 26.251C103.619 26.5517 103.626 26.79 103.641 26.966C103.656 27.142 103.692 27.2777 103.751 27.373C103.817 27.461 103.909 27.5197 104.026 27.549C104.143 27.5783 104.308 27.6003 104.521 27.615V28H101.595V27.615C101.808 27.6003 101.976 27.5783 102.101 27.549C102.226 27.5197 102.321 27.461 102.387 27.373C102.453 27.285 102.493 27.1603 102.508 26.999C102.53 26.8303 102.541 26.6067 102.541 26.328V21.719C102.541 21.2863 102.534 20.9417 102.519 20.685C102.512 20.4283 102.493 20.234 102.464 20.102C102.449 20.014 102.424 19.9443 102.387 19.893C102.358 19.8343 102.31 19.7903 102.244 19.761C102.178 19.7243 102.09 19.6987 101.98 19.684C101.87 19.6693 101.734 19.662 101.573 19.662V19.288L103.597 18.87V23.061H103.641C103.751 22.9143 103.887 22.7823 104.048 22.665C104.217 22.5403 104.396 22.434 104.587 22.346C104.778 22.258 104.976 22.1883 105.181 22.137C105.394 22.0857 105.599 22.06 105.797 22.06C106.134 22.06 106.442 22.1187 106.721 22.236C107.007 22.3533 107.227 22.511 107.381 22.709C107.506 22.8777 107.597 23.1013 107.656 23.38C107.715 23.6513 107.744 24.0217 107.744 24.491V26.251C107.744 26.5517 107.751 26.79 107.766 26.966C107.781 27.1347 107.817 27.2667 107.876 27.362C107.942 27.4573 108.034 27.5197 108.151 27.549C108.268 27.5783 108.433 27.6003 108.646 27.615V28H105.731V27.615C105.936 27.6077 106.101 27.5893 106.226 27.56C106.351 27.5233 106.442 27.461 106.501 27.373C106.567 27.285 106.607 27.1603 106.622 26.999C106.644 26.8303 106.655 26.6067 106.655 26.328V24.942C106.655 24.1207 106.56 23.5377 106.369 23.193C106.178 22.841 105.859 22.665 105.412 22.665C105.067 22.665 104.752 22.753 104.466 22.929C104.187 23.105 103.967 23.347 103.806 23.655C103.769 23.7357 103.736 23.8127 103.707 23.886C103.685 23.952 103.667 24.029 103.652 24.117C103.637 24.205 103.626 24.3077 103.619 24.425C103.619 24.535 103.619 24.6743 103.619 24.843V26.251ZM111.412 26.251C111.412 26.537 111.423 26.768 111.445 26.944C111.475 27.1127 111.526 27.2483 111.599 27.351C111.673 27.4463 111.775 27.5123 111.907 27.549C112.039 27.5857 112.215 27.6077 112.435 27.615V28H109.278V27.615C109.498 27.6077 109.678 27.5857 109.817 27.549C109.957 27.505 110.063 27.439 110.136 27.351C110.217 27.2557 110.268 27.1273 110.29 26.966C110.32 26.7973 110.334 26.5847 110.334 26.328V24.92C110.334 24.4947 110.327 24.1463 110.312 23.875C110.305 23.5963 110.287 23.4057 110.257 23.303C110.221 23.1343 110.136 23.0207 110.004 22.962C109.872 22.896 109.623 22.863 109.256 22.863V22.478L111.412 22.06V26.251ZM110.147 19.827C110.147 19.6363 110.213 19.475 110.345 19.343C110.477 19.211 110.639 19.145 110.829 19.145C111.02 19.145 111.181 19.211 111.313 19.343C111.445 19.475 111.511 19.6363 111.511 19.827C111.511 20.0177 111.445 20.179 111.313 20.311C111.181 20.443 111.02 20.509 110.829 20.509C110.639 20.509 110.477 20.443 110.345 20.311C110.213 20.179 110.147 20.0177 110.147 19.827ZM113.599 28H113.357V26.108H113.632C113.918 27.142 114.439 27.659 115.194 27.659C115.488 27.659 115.719 27.5893 115.887 27.45C116.063 27.3033 116.151 27.0833 116.151 26.79C116.151 26.68 116.133 26.5883 116.096 26.515C116.067 26.4343 116.005 26.3537 115.909 26.273C115.821 26.185 115.693 26.086 115.524 25.976C115.363 25.866 115.147 25.7267 114.875 25.558C114.626 25.404 114.41 25.261 114.226 25.129C114.043 24.997 113.889 24.865 113.764 24.733C113.64 24.5937 113.544 24.447 113.478 24.293C113.42 24.139 113.39 23.9593 113.39 23.754C113.39 23.5047 113.431 23.2773 113.511 23.072C113.599 22.8593 113.717 22.6797 113.863 22.533C114.01 22.3863 114.182 22.2727 114.38 22.192C114.578 22.104 114.795 22.06 115.029 22.06C115.227 22.06 115.433 22.093 115.645 22.159C115.858 22.2177 116.045 22.2983 116.206 22.401L116.426 22.17H116.635V23.754H116.349C116.188 23.3067 116.012 22.9877 115.821 22.797C115.631 22.6063 115.396 22.511 115.117 22.511C114.868 22.511 114.666 22.577 114.512 22.709C114.366 22.841 114.292 23.0243 114.292 23.259C114.292 23.3837 114.311 23.4937 114.347 23.589C114.391 23.677 114.457 23.765 114.545 23.853C114.633 23.941 114.743 24.0327 114.875 24.128C115.015 24.216 115.18 24.3187 115.37 24.436C115.686 24.634 115.953 24.81 116.173 24.964C116.401 25.118 116.584 25.272 116.723 25.426C116.863 25.5727 116.965 25.7267 117.031 25.888C117.097 26.0493 117.13 26.2327 117.13 26.438C117.13 26.9587 116.962 27.3693 116.624 27.67C116.287 27.9633 115.843 28.11 115.293 28.11C114.721 28.11 114.23 27.945 113.819 27.615L113.599 28ZM118.088 22.863V22.456C118.477 22.2287 118.781 22.0013 119.001 21.774C119.221 21.5467 119.39 21.2753 119.507 20.96H119.826V22.346H121.3V22.863H119.826V26.207C119.826 26.4637 119.837 26.68 119.859 26.856C119.889 27.032 119.933 27.175 119.991 27.285C120.05 27.3877 120.127 27.461 120.222 27.505C120.318 27.549 120.439 27.571 120.585 27.571C120.769 27.571 120.923 27.5343 121.047 27.461C121.179 27.3803 121.308 27.2483 121.432 27.065L121.707 27.274C121.605 27.5453 121.425 27.7543 121.168 27.901C120.919 28.0403 120.607 28.11 120.233 28.11C119.749 28.11 119.379 27.9963 119.122 27.769C118.873 27.5343 118.748 27.2007 118.748 26.768V22.863H118.088ZM125.381 22.06C125.799 22.06 126.195 22.137 126.569 22.291C126.943 22.4377 127.269 22.643 127.548 22.907C127.834 23.171 128.057 23.4863 128.219 23.853C128.387 24.2123 128.472 24.6083 128.472 25.041C128.472 25.4883 128.387 25.899 128.219 26.273C128.057 26.647 127.834 26.9697 127.548 27.241C127.269 27.5123 126.943 27.725 126.569 27.879C126.195 28.033 125.799 28.11 125.381 28.11C124.97 28.11 124.578 28.0367 124.204 27.89C123.837 27.736 123.514 27.5233 123.236 27.252C122.957 26.9807 122.737 26.658 122.576 26.284C122.414 25.9027 122.334 25.4883 122.334 25.041C122.334 24.6083 122.414 24.2087 122.576 23.842C122.737 23.4753 122.957 23.16 123.236 22.896C123.514 22.632 123.837 22.4267 124.204 22.28C124.578 22.1333 124.97 22.06 125.381 22.06ZM125.381 22.588C125.109 22.588 124.86 22.6467 124.633 22.764C124.413 22.8813 124.222 23.05 124.061 23.27C123.907 23.4827 123.786 23.743 123.698 24.051C123.617 24.3517 123.577 24.6853 123.577 25.052C123.577 25.4333 123.617 25.778 123.698 26.086C123.786 26.394 123.907 26.658 124.061 26.878C124.222 27.0907 124.413 27.2557 124.633 27.373C124.853 27.4903 125.102 27.549 125.381 27.549C125.659 27.549 125.912 27.4903 126.14 27.373C126.367 27.2557 126.561 27.087 126.723 26.867C126.884 26.647 127.009 26.383 127.097 26.075C127.185 25.767 127.229 25.426 127.229 25.052C127.229 24.6853 127.185 24.3517 127.097 24.051C127.009 23.7503 126.884 23.4937 126.723 23.281C126.561 23.061 126.367 22.8923 126.14 22.775C125.912 22.6503 125.659 22.588 125.381 22.588ZM131.511 26.251C131.511 26.537 131.522 26.768 131.544 26.944C131.573 27.1127 131.625 27.2483 131.698 27.351C131.771 27.4463 131.874 27.5123 132.006 27.549C132.138 27.5857 132.314 27.6077 132.534 27.615V28H129.377V27.615C129.597 27.6077 129.777 27.5857 129.916 27.549C130.055 27.505 130.162 27.439 130.235 27.351C130.316 27.2557 130.367 27.1273 130.389 26.966C130.418 26.7973 130.433 26.5847 130.433 26.328V24.92C130.433 24.4947 130.426 24.1463 130.411 23.875C130.404 23.5963 130.385 23.4057 130.356 23.303C130.319 23.1343 130.235 23.0207 130.103 22.962C129.971 22.896 129.722 22.863 129.355 22.863V22.478L131.511 22.06V26.251ZM130.246 19.827C130.246 19.6363 130.312 19.475 130.444 19.343C130.576 19.211 130.737 19.145 130.928 19.145C131.119 19.145 131.28 19.211 131.412 19.343C131.544 19.475 131.61 19.6363 131.61 19.827C131.61 20.0177 131.544 20.179 131.412 20.311C131.28 20.443 131.119 20.509 130.928 20.509C130.737 20.509 130.576 20.443 130.444 20.311C130.312 20.179 130.246 20.0177 130.246 19.827ZM135.194 26.251C135.194 26.5517 135.201 26.79 135.216 26.966C135.231 27.142 135.267 27.2777 135.326 27.373C135.392 27.461 135.484 27.5197 135.601 27.549C135.718 27.5783 135.883 27.6003 136.096 27.615V28H133.17V27.615C133.383 27.6077 133.551 27.5893 133.676 27.56C133.801 27.5233 133.896 27.461 133.962 27.373C134.028 27.285 134.068 27.1603 134.083 26.999C134.105 26.8303 134.116 26.6067 134.116 26.328V25.041C134.116 24.5423 134.109 24.1537 134.094 23.875C134.087 23.5963 134.05 23.391 133.984 23.259C133.925 23.127 133.83 23.05 133.698 23.028C133.566 22.9987 133.383 22.984 133.148 22.984V22.599L135.073 22.181L135.227 23.545H135.271C135.366 23.325 135.484 23.1233 135.623 22.94C135.77 22.7567 135.927 22.6027 136.096 22.478C136.265 22.346 136.441 22.2433 136.624 22.17C136.807 22.0967 136.994 22.06 137.185 22.06C137.42 22.06 137.603 22.1187 137.735 22.236C137.874 22.346 137.944 22.4963 137.944 22.687C137.944 22.863 137.889 23.0023 137.779 23.105C137.669 23.2003 137.511 23.248 137.306 23.248C137.189 23.248 137.09 23.2333 137.009 23.204C136.928 23.1747 136.855 23.1453 136.789 23.116C136.73 23.0793 136.672 23.0463 136.613 23.017C136.562 22.9877 136.503 22.973 136.437 22.973C136.239 22.973 136.041 23.1013 135.843 23.358C135.645 23.6073 135.491 23.9263 135.381 24.315C135.322 24.5277 135.275 24.7697 135.238 25.041C135.209 25.305 135.194 25.5837 135.194 25.877V26.251ZM143.618 26.977C142.995 27.7323 142.221 28.11 141.297 28.11C140.864 28.11 140.472 28.0403 140.12 27.901C139.768 27.7543 139.464 27.5527 139.207 27.296C138.958 27.032 138.763 26.7203 138.624 26.361C138.485 25.9943 138.415 25.591 138.415 25.151C138.415 24.7037 138.488 24.2893 138.635 23.908C138.782 23.5267 138.987 23.2003 139.251 22.929C139.522 22.6577 139.841 22.445 140.208 22.291C140.582 22.137 140.989 22.06 141.429 22.06C142.14 22.06 142.69 22.2543 143.079 22.643C143.468 23.0243 143.662 23.5743 143.662 24.293C143.662 24.3957 143.64 24.458 143.596 24.48C143.559 24.502 143.468 24.513 143.321 24.513H139.702C139.687 24.5717 139.676 24.645 139.669 24.733C139.662 24.8137 139.658 24.9053 139.658 25.008C139.658 25.3893 139.702 25.7377 139.79 26.053C139.885 26.361 140.017 26.625 140.186 26.845C140.362 27.065 140.567 27.2373 140.802 27.362C141.044 27.4793 141.312 27.538 141.605 27.538C141.913 27.538 142.199 27.472 142.463 27.34C142.727 27.2007 142.998 26.977 143.277 26.669L143.618 26.977ZM141.803 24.007C141.95 24.007 142.067 24.0033 142.155 23.996C142.243 23.9887 142.309 23.974 142.353 23.952C142.397 23.93 142.426 23.9007 142.441 23.864C142.456 23.82 142.463 23.765 142.463 23.699C142.463 23.3617 142.353 23.094 142.133 22.896C141.92 22.6907 141.627 22.588 141.253 22.588C140.461 22.588 139.97 23.061 139.779 24.007H141.803ZM152.664 27.076H152.62C152.356 27.45 152.074 27.7177 151.773 27.879C151.48 28.033 151.131 28.11 150.728 28.11C150.31 28.11 149.925 28.0367 149.573 27.89C149.228 27.736 148.928 27.527 148.671 27.263C148.422 26.9917 148.224 26.669 148.077 26.295C147.938 25.921 147.868 25.514 147.868 25.074C147.868 24.6413 147.938 24.2417 148.077 23.875C148.224 23.501 148.422 23.182 148.671 22.918C148.928 22.6467 149.232 22.4377 149.584 22.291C149.936 22.137 150.317 22.06 150.728 22.06C151.08 22.06 151.392 22.1187 151.663 22.236C151.942 22.3533 152.209 22.5403 152.466 22.797V21.675C152.466 21.257 152.459 20.9087 152.444 20.63C152.437 20.3513 152.422 20.1607 152.4 20.058C152.363 19.8967 152.261 19.783 152.092 19.717C151.923 19.651 151.648 19.618 151.267 19.618V19.288L153.522 18.87V25.217C153.522 25.723 153.526 26.141 153.533 26.471C153.54 26.7937 153.562 27.0247 153.599 27.164C153.621 27.252 153.647 27.3253 153.676 27.384C153.713 27.4427 153.76 27.4903 153.819 27.527C153.885 27.5563 153.969 27.5783 154.072 27.593C154.182 27.6077 154.321 27.615 154.49 27.615V27.989L152.664 28.11V27.076ZM152.444 24.645C152.444 24.2637 152.422 23.974 152.378 23.776C152.341 23.578 152.264 23.4057 152.147 23.259C151.978 23.039 151.762 22.874 151.498 22.764C151.241 22.6467 150.985 22.588 150.728 22.588C150.2 22.588 149.797 22.808 149.518 23.248C149.247 23.6807 149.111 24.271 149.111 25.019C149.111 25.4077 149.144 25.7597 149.21 26.075C149.283 26.3903 149.386 26.6617 149.518 26.889C149.657 27.109 149.826 27.2813 150.024 27.406C150.229 27.5233 150.464 27.582 150.728 27.582C150.86 27.582 150.992 27.5673 151.124 27.538C151.263 27.5087 151.395 27.4647 151.52 27.406C151.652 27.34 151.773 27.2667 151.883 27.186C151.993 27.098 152.085 26.999 152.158 26.889C152.261 26.7277 152.334 26.5333 152.378 26.306C152.422 26.0787 152.444 25.767 152.444 25.371V24.645ZM159.856 23.93C159.856 23.6293 159.848 23.3947 159.834 23.226C159.819 23.05 159.779 22.918 159.713 22.83C159.654 22.7347 159.562 22.6723 159.438 22.643C159.32 22.6063 159.155 22.577 158.943 22.555V22.17H160.934V25.547C160.934 25.965 160.937 26.306 160.945 26.57C160.959 26.834 160.978 27.032 161 27.164C161.014 27.2593 161.036 27.3363 161.066 27.395C161.102 27.4463 161.154 27.4903 161.22 27.527C161.286 27.5563 161.37 27.5783 161.473 27.593C161.583 27.6003 161.722 27.604 161.891 27.604V27.989L160.076 28.121L159.955 26.801H159.911C159.632 27.2557 159.309 27.5893 158.943 27.802C158.583 28.0073 158.206 28.11 157.81 28.11C157.502 28.11 157.201 28.0513 156.908 27.934C156.622 27.8167 156.405 27.659 156.259 27.461C156.134 27.2997 156.042 27.076 155.984 26.79C155.932 26.504 155.907 26.1337 155.907 25.679V23.93C155.907 23.6293 155.899 23.3947 155.885 23.226C155.87 23.05 155.83 22.918 155.764 22.83C155.705 22.7347 155.613 22.6723 155.489 22.643C155.371 22.6063 155.206 22.577 154.994 22.555V22.17H156.985V25.173C156.985 25.9723 157.076 26.5517 157.26 26.911C157.45 27.2703 157.751 27.45 158.162 27.45C158.807 27.45 159.309 27.0283 159.669 26.185C159.705 26.097 159.735 26.0163 159.757 25.943C159.779 25.8697 159.797 25.789 159.812 25.701C159.826 25.613 159.837 25.514 159.845 25.404C159.852 25.294 159.856 25.162 159.856 25.008V23.93ZM165.73 22.863V22.456C166.119 22.2287 166.423 22.0013 166.643 21.774C166.863 21.5467 167.032 21.2753 167.149 20.96H167.468V22.346H168.942V22.863H167.468V26.207C167.468 26.4637 167.479 26.68 167.501 26.856C167.53 27.032 167.574 27.175 167.633 27.285C167.692 27.3877 167.769 27.461 167.864 27.505C167.959 27.549 168.08 27.571 168.227 27.571C168.41 27.571 168.564 27.5343 168.689 27.461C168.821 27.3803 168.949 27.2483 169.074 27.065L169.349 27.274C169.246 27.5453 169.067 27.7543 168.81 27.901C168.561 28.0403 168.249 28.11 167.875 28.11C167.391 28.11 167.021 27.9963 166.764 27.769C166.515 27.5343 166.39 27.2007 166.39 26.768V22.863H165.73ZM175.189 26.977C174.566 27.7323 173.792 28.11 172.868 28.11C172.436 28.11 172.043 28.0403 171.691 27.901C171.339 27.7543 171.035 27.5527 170.778 27.296C170.529 27.032 170.335 26.7203 170.195 26.361C170.056 25.9943 169.986 25.591 169.986 25.151C169.986 24.7037 170.06 24.2893 170.206 23.908C170.353 23.5267 170.558 23.2003 170.822 22.929C171.094 22.6577 171.413 22.445 171.779 22.291C172.153 22.137 172.56 22.06 173 22.06C173.712 22.06 174.262 22.2543 174.65 22.643C175.039 23.0243 175.233 23.5743 175.233 24.293C175.233 24.3957 175.211 24.458 175.167 24.48C175.131 24.502 175.039 24.513 174.892 24.513H171.273C171.259 24.5717 171.248 24.645 171.24 24.733C171.233 24.8137 171.229 24.9053 171.229 25.008C171.229 25.3893 171.273 25.7377 171.361 26.053C171.457 26.361 171.589 26.625 171.757 26.845C171.933 27.065 172.139 27.2373 172.373 27.362C172.615 27.4793 172.883 27.538 173.176 27.538C173.484 27.538 173.77 27.472 174.034 27.34C174.298 27.2007 174.57 26.977 174.848 26.669L175.189 26.977ZM173.374 24.007C173.521 24.007 173.638 24.0033 173.726 23.996C173.814 23.9887 173.88 23.974 173.924 23.952C173.968 23.93 173.998 23.9007 174.012 23.864C174.027 23.82 174.034 23.765 174.034 23.699C174.034 23.3617 173.924 23.094 173.704 22.896C173.492 22.6907 173.198 22.588 172.824 22.588C172.032 22.588 171.541 23.061 171.35 24.007H173.374ZM178.184 26.24C178.184 26.548 178.191 26.79 178.206 26.966C178.221 27.142 178.257 27.2777 178.316 27.373C178.382 27.461 178.474 27.5197 178.591 27.549C178.708 27.5783 178.873 27.6003 179.086 27.615V28H176.16V27.615C176.373 27.6003 176.541 27.5783 176.666 27.549C176.791 27.5197 176.886 27.461 176.952 27.373C177.018 27.285 177.058 27.1603 177.073 26.999C177.095 26.8303 177.106 26.6067 177.106 26.328V24.92C177.106 24.502 177.099 24.1537 177.084 23.875C177.077 23.5963 177.058 23.4057 177.029 23.303C177.007 23.2077 176.981 23.1343 176.952 23.083C176.923 23.0243 176.875 22.9803 176.809 22.951C176.743 22.9143 176.655 22.8923 176.545 22.885C176.442 22.8703 176.307 22.863 176.138 22.863V22.478L177.931 22.06L178.074 23.16H178.129C178.459 22.786 178.804 22.511 179.163 22.335C179.53 22.1517 179.933 22.06 180.373 22.06C180.835 22.06 181.224 22.1553 181.539 22.346C181.854 22.5293 182.074 22.797 182.199 23.149H182.243C182.514 22.8043 182.844 22.5367 183.233 22.346C183.622 22.1553 184.036 22.06 184.476 22.06C184.821 22.06 185.132 22.1187 185.411 22.236C185.697 22.346 185.913 22.5 186.06 22.698C186.192 22.8667 186.284 23.0903 186.335 23.369C186.394 23.6403 186.423 24.0143 186.423 24.491V26.24C186.423 26.5407 186.43 26.779 186.445 26.955C186.467 27.131 186.507 27.2667 186.566 27.362C186.625 27.4573 186.713 27.5197 186.83 27.549C186.955 27.5783 187.123 27.6003 187.336 27.615V28H184.41V27.615C184.615 27.6077 184.78 27.5893 184.905 27.56C185.03 27.5233 185.125 27.461 185.191 27.373C185.257 27.2777 185.297 27.1493 185.312 26.988C185.334 26.8267 185.345 26.6067 185.345 26.328V24.942C185.345 24.524 185.323 24.172 185.279 23.886C185.235 23.5927 185.162 23.358 185.059 23.182C184.956 22.9987 184.821 22.8667 184.652 22.786C184.491 22.7053 184.293 22.665 184.058 22.665C183.735 22.665 183.431 22.7567 183.145 22.94C182.866 23.116 182.646 23.3543 182.485 23.655C182.448 23.7283 182.415 23.8017 182.386 23.875C182.364 23.941 182.346 24.018 182.331 24.106C182.316 24.1867 182.305 24.2857 182.298 24.403C182.298 24.5203 182.298 24.667 182.298 24.843V26.24C182.298 26.5407 182.305 26.779 182.32 26.955C182.335 27.131 182.371 27.2667 182.43 27.362C182.496 27.4573 182.591 27.5197 182.716 27.549C182.841 27.5783 183.009 27.6003 183.222 27.615V28H180.296V27.615C180.501 27.6003 180.666 27.5783 180.791 27.549C180.916 27.5197 181.007 27.461 181.066 27.373C181.132 27.285 181.172 27.1603 181.187 26.999C181.209 26.8303 181.22 26.6067 181.22 26.328V24.942C181.22 24.5167 181.198 24.161 181.154 23.875C181.11 23.5817 181.037 23.347 180.934 23.171C180.839 22.9877 180.71 22.8593 180.549 22.786C180.388 22.7053 180.19 22.665 179.955 22.665C179.625 22.665 179.313 22.7567 179.02 22.94C178.734 23.116 178.518 23.3543 178.371 23.655C178.334 23.7283 178.301 23.8017 178.272 23.875C178.25 23.941 178.232 24.018 178.217 24.106C178.202 24.1867 178.191 24.2857 178.184 24.403C178.184 24.5203 178.184 24.667 178.184 24.843V26.24ZM189.869 22.962H189.913C190.147 22.6833 190.4 22.4633 190.672 22.302C190.943 22.1407 191.258 22.06 191.618 22.06C192.036 22.06 192.417 22.137 192.762 22.291C193.114 22.4377 193.418 22.6467 193.675 22.918C193.931 23.1893 194.129 23.512 194.269 23.886C194.415 24.2527 194.489 24.656 194.489 25.096C194.489 25.5433 194.415 25.954 194.269 26.328C194.122 26.6947 193.92 27.01 193.664 27.274C193.407 27.538 193.103 27.7433 192.751 27.89C192.399 28.0367 192.017 28.11 191.607 28.11C191.269 28.11 190.961 28.055 190.683 27.945C190.411 27.8277 190.155 27.6407 189.913 27.384V28.99C189.913 29.2833 189.927 29.518 189.957 29.694C189.986 29.87 190.045 30.0057 190.133 30.101C190.221 30.1963 190.345 30.2623 190.507 30.299C190.675 30.3357 190.895 30.3577 191.167 30.365V30.75H187.779V30.365C187.999 30.3577 188.175 30.3357 188.307 30.299C188.446 30.2623 188.552 30.1963 188.626 30.101C188.706 30.0057 188.761 29.8737 188.791 29.705C188.82 29.5437 188.835 29.331 188.835 29.067V24.953C188.835 24.5277 188.827 24.1793 188.813 23.908C188.805 23.6367 188.787 23.4497 188.758 23.347C188.721 23.171 188.637 23.0537 188.505 22.995C188.373 22.929 188.123 22.896 187.757 22.896V22.522L189.869 22.104V22.962ZM190.199 23.281C190.103 23.4277 190.03 23.6037 189.979 23.809C189.935 24.007 189.913 24.2673 189.913 24.59V25.448C189.913 25.646 189.916 25.8183 189.924 25.965C189.938 26.1043 189.957 26.2253 189.979 26.328C190.001 26.4307 190.03 26.5223 190.067 26.603C190.103 26.6837 190.151 26.7607 190.21 26.834C190.378 27.0687 190.58 27.252 190.815 27.384C191.049 27.5087 191.295 27.571 191.552 27.571C192.058 27.571 192.465 27.3583 192.773 26.933C193.088 26.5077 193.246 25.91 193.246 25.14C193.246 24.7587 193.202 24.414 193.114 24.106C193.033 23.7907 192.916 23.523 192.762 23.303C192.608 23.0757 192.421 22.8997 192.201 22.775C191.988 22.6503 191.75 22.588 191.486 22.588C191.222 22.588 190.976 22.6503 190.749 22.775C190.529 22.8923 190.345 23.061 190.199 23.281ZM195.97 28H195.728V26.108H196.003C196.289 27.142 196.81 27.659 197.565 27.659C197.859 27.659 198.09 27.5893 198.258 27.45C198.434 27.3033 198.522 27.0833 198.522 26.79C198.522 26.68 198.504 26.5883 198.467 26.515C198.438 26.4343 198.376 26.3537 198.28 26.273C198.192 26.185 198.064 26.086 197.895 25.976C197.734 25.866 197.518 25.7267 197.246 25.558C196.997 25.404 196.781 25.261 196.597 25.129C196.414 24.997 196.26 24.865 196.135 24.733C196.011 24.5937 195.915 24.447 195.849 24.293C195.791 24.139 195.761 23.9593 195.761 23.754C195.761 23.5047 195.802 23.2773 195.882 23.072C195.97 22.8593 196.088 22.6797 196.234 22.533C196.381 22.3863 196.553 22.2727 196.751 22.192C196.949 22.104 197.166 22.06 197.4 22.06C197.598 22.06 197.804 22.093 198.016 22.159C198.229 22.2177 198.416 22.2983 198.577 22.401L198.797 22.17H199.006V23.754H198.72C198.559 23.3067 198.383 22.9877 198.192 22.797C198.002 22.6063 197.767 22.511 197.488 22.511C197.239 22.511 197.037 22.577 196.883 22.709C196.737 22.841 196.663 23.0243 196.663 23.259C196.663 23.3837 196.682 23.4937 196.718 23.589C196.762 23.677 196.828 23.765 196.916 23.853C197.004 23.941 197.114 24.0327 197.246 24.128C197.386 24.216 197.551 24.3187 197.741 24.436C198.057 24.634 198.324 24.81 198.544 24.964C198.772 25.118 198.955 25.272 199.094 25.426C199.234 25.5727 199.336 25.7267 199.402 25.888C199.468 26.0493 199.501 26.2327 199.501 26.438C199.501 26.9587 199.333 27.3693 198.995 27.67C198.658 27.9633 198.214 28.11 197.664 28.11C197.092 28.11 196.601 27.945 196.19 27.615L195.97 28Z" fill="#94A3B8"/>
</svg>
